<svg width="188" height="1021" viewBox="0 0 188 1021" fill="none" xmlns="http://www.w3.org/2000/svg">
<g clip-path="url(#clip0_358_16)">
<mask id="path-1-outside-1_358_16" maskUnits="userSpaceOnUse" x="40" y="44" width="109" height="934" fill="black">
<rect fill="white" x="40" y="44" width="109" height="934"/>
<path d="M42 82.3997L42 53.8517L60.564 61.3397L60.564 46.3637L86.772 46.3637L86.772 71.7917L97.692 76.1597L97.692 55.4117L123.9 55.4117L123.9 86.6117L146.52 95.6597L146.52 124.208L123.9 115.16L123.9 132.32L146.52 141.368L146.52 169.916L123.9 160.868L123.9 177.56L97.692 177.56L97.692 150.416L86.772 146.048L86.772 168.356L60.564 168.356L60.564 135.596L42 128.108L42 99.5597L60.564 107.048L60.564 89.8877L42 82.3997ZM98.316 104.084L86.304 99.2477L86.304 118.124L98.316 122.96L98.316 104.084ZM42 255.07L42 225.742L113.76 225.742L113.76 197.818L133.572 197.818L133.572 201.718C133.572 213.106 135.912 221.998 146.52 227.77L146.52 255.07L42 255.07ZM42 346.778L42 317.45L146.52 317.45L146.52 357.23L103.152 376.418L76.164 386.714L76.164 388.742L103.152 398.57L146.52 416.822L146.52 456.602L42 456.602L42 427.274L85.212 427.274L102.684 428.366L102.684 426.338L85.212 420.41L48.24 404.81L48.24 369.242L85.212 353.642L102.684 347.714L102.684 345.686L85.212 346.778L42 346.778ZM42 508.261L42 475.345L146.52 520.429L146.52 562.393L42 607.633L42 573.937L61.344 565.981L61.344 516.373L42 508.261ZM102.372 533.533L87.708 527.449L87.708 555.217L102.372 549.133L120 542.269L120 540.241L102.372 533.533ZM42 655.701L42 626.373L146.52 626.373L146.52 687.369C146.52 714.981 134.976 729.489 114.54 729.489C98.004 729.489 88.176 721.221 85.68 701.253L84.12 701.253C81.312 712.017 76.164 715.449 68.208 719.349L42 732.297L42 698.445L67.584 685.965C75.384 682.221 77.568 679.101 77.568 667.713L77.568 655.701L42 655.701ZM120.156 655.701L99.408 655.701L99.408 687.057C99.408 695.637 100.968 698.757 109.86 698.757C118.128 698.757 120.156 695.637 120.156 687.057L120.156 655.701ZM42 781.903L42 752.575L146.52 752.575L146.52 781.903L107.676 781.903L107.676 802.963L146.52 828.391L146.52 863.491L95.196 827.299L42 862.711L42 827.611L79.128 803.275L79.128 781.903L42 781.903ZM42 975.1L42 882.28L146.52 882.28L146.52 975.1L120.156 975.1L120.156 911.608L107.676 911.608L107.676 972.76L81.468 972.76L81.468 911.608L68.364 911.608L68.364 975.1L42 975.1Z"/>
</mask>
<path d="M42 82.3997L40 82.3997L40 83.7496L41.2518 84.2545L42 82.3997ZM42 53.8517L42.7481 51.9969L40 50.8884L40 53.8517L42 53.8517ZM60.564 61.3397L59.8158 63.1945L62.564 64.303L62.564 61.3397L60.564 61.3397ZM60.564 46.3637L60.564 44.3637L58.564 44.3637L58.564 46.3637L60.564 46.3637ZM86.772 46.3637L88.772 46.3637L88.772 44.3637L86.772 44.3637L86.772 46.3637ZM86.772 71.7917L84.772 71.7917L84.772 73.1458L86.0292 73.6487L86.772 71.7917ZM97.692 76.1597L96.9492 78.0167L99.692 79.1138L99.692 76.1597L97.692 76.1597ZM97.692 55.4117L97.692 53.4117L95.692 53.4117L95.692 55.4117L97.692 55.4117ZM123.9 55.4117L125.9 55.4117L125.9 53.4117L123.9 53.4117L123.9 55.4117ZM123.9 86.6117L121.9 86.6117L121.9 87.9658L123.157 88.4687L123.9 86.6117ZM146.52 95.6597L148.52 95.6597L148.52 94.3057L147.263 93.8028L146.52 95.6597ZM146.52 124.208L145.777 126.065L148.52 127.162L148.52 124.208L146.52 124.208ZM123.9 115.16L124.643 113.303L121.9 112.206L121.9 115.16L123.9 115.16ZM123.9 132.32L121.9 132.32L121.9 133.674L123.157 134.177L123.9 132.32ZM146.52 141.368L148.52 141.368L148.52 140.014L147.263 139.511L146.52 141.368ZM146.52 169.916L145.777 171.773L148.52 172.87L148.52 169.916L146.52 169.916ZM123.9 160.868L124.643 159.011L121.9 157.914L121.9 160.868L123.9 160.868ZM123.9 177.56L123.9 179.56L125.9 179.56L125.9 177.56L123.9 177.56ZM97.692 177.56L95.692 177.56L95.692 179.56L97.692 179.56L97.692 177.56ZM97.692 150.416L99.692 150.416L99.692 149.062L98.4348 148.559L97.692 150.416ZM86.772 146.048L87.5148 144.191L84.772 143.094L84.772 146.048L86.772 146.048ZM86.772 168.356L86.772 170.356L88.772 170.356L88.772 168.356L86.772 168.356ZM60.564 168.356L58.564 168.356L58.564 170.356L60.564 170.356L60.564 168.356ZM60.564 135.596L62.564 135.596L62.564 134.246L61.3121 133.741L60.564 135.596ZM42 128.108L40 128.108L40 129.458L41.2518 129.963L42 128.108ZM42 99.5597L42.7481 97.7049L40 96.5964L40 99.5597L42 99.5597ZM60.564 107.048L59.8158 108.903L62.564 110.011L62.564 107.048L60.564 107.048ZM60.564 89.8877L62.564 89.8877L62.564 88.5379L61.3121 88.0329L60.564 89.8877ZM98.316 104.084L100.316 104.084L100.316 102.733L99.0629 102.228L98.316 104.084ZM86.304 99.2477L87.0509 97.3925L84.304 96.2865L84.304 99.2477L86.304 99.2477ZM86.304 118.124L84.304 118.124L84.304 119.475L85.5571 119.979L86.304 118.124ZM98.316 122.96L97.5691 124.815L100.316 125.921L100.316 122.96L98.316 122.96ZM44 82.3997L44 53.8517L40 53.8517L40 82.3997L44 82.3997ZM41.2518 55.7065L59.8158 63.1945L61.3121 59.4849L42.7481 51.9969L41.2518 55.7065ZM62.564 61.3397L62.564 46.3637L58.564 46.3637L58.564 61.3397L62.564 61.3397ZM60.564 48.3637L86.772 48.3637L86.772 44.3637L60.564 44.3637L60.564 48.3637ZM84.772 46.3637L84.772 71.7917L88.772 71.7917L88.772 46.3637L84.772 46.3637ZM86.0292 73.6487L96.9492 78.0167L98.4348 74.3028L87.5148 69.9348L86.0292 73.6487ZM99.692 76.1597L99.692 55.4117L95.692 55.4117L95.692 76.1597L99.692 76.1597ZM97.692 57.4117L123.9 57.4117L123.9 53.4117L97.692 53.4117L97.692 57.4117ZM121.9 55.4117L121.9 86.6117L125.9 86.6117L125.9 55.4117L121.9 55.4117ZM123.157 88.4687L145.777 97.5167L147.263 93.8028L124.643 84.7548L123.157 88.4687ZM144.52 95.6597L144.52 124.208L148.52 124.208L148.52 95.6597L144.52 95.6597ZM147.263 122.351L124.643 113.303L123.157 117.017L145.777 126.065L147.263 122.351ZM121.9 115.16L121.9 132.32L125.9 132.32L125.9 115.16L121.9 115.16ZM123.157 134.177L145.777 143.225L147.263 139.511L124.643 130.463L123.157 134.177ZM144.52 141.368L144.52 169.916L148.52 169.916L148.52 141.368L144.52 141.368ZM147.263 168.059L124.643 159.011L123.157 162.725L145.777 171.773L147.263 168.059ZM121.9 160.868L121.9 177.56L125.9 177.56L125.9 160.868L121.9 160.868ZM123.9 175.56L97.692 175.56L97.692 179.56L123.9 179.56L123.9 175.56ZM99.692 177.56L99.692 150.416L95.692 150.416L95.692 177.56L99.692 177.56ZM98.4348 148.559L87.5148 144.191L86.0292 147.905L96.9492 152.273L98.4348 148.559ZM84.772 146.048L84.772 168.356L88.772 168.356L88.772 146.048L84.772 146.048ZM86.772 166.356L60.564 166.356L60.564 170.356L86.772 170.356L86.772 166.356ZM62.564 168.356L62.564 135.596L58.564 135.596L58.564 168.356L62.564 168.356ZM61.3121 133.741L42.7481 126.253L41.2518 129.963L59.8158 137.451L61.3121 133.741ZM44 128.108L44 99.5597L40 99.5597L40 128.108L44 128.108ZM41.2518 101.415L59.8158 108.903L61.3121 105.193L42.7481 97.7049L41.2518 101.415ZM62.564 107.048L62.564 89.8877L58.564 89.8877L58.564 107.048L62.564 107.048ZM61.3121 88.0329L42.7481 80.5449L41.2518 84.2545L59.8158 91.7425L61.3121 88.0329ZM99.0629 102.228L87.0509 97.3925L85.5571 101.103L97.5691 105.939L99.0629 102.228ZM84.304 99.2477L84.304 118.124L88.304 118.124L88.304 99.2477L84.304 99.2477ZM85.5571 119.979L97.5691 124.815L99.0629 121.104L87.0509 116.268L85.5571 119.979ZM100.316 122.96L100.316 104.084L96.316 104.084L96.316 122.96L100.316 122.96ZM42 255.07L40 255.07L40 257.07L42 257.07L42 255.07ZM42 225.742L42 223.742L40 223.742L40 225.742L42 225.742ZM113.76 225.742L113.76 227.742L115.76 227.742L115.76 225.742L113.76 225.742ZM113.76 197.818L113.76 195.818L111.76 195.818L111.76 197.818L113.76 197.818ZM133.572 197.818L135.572 197.818L135.572 195.818L133.572 195.818L133.572 197.818ZM146.52 227.77L148.52 227.77L148.52 226.581L147.476 226.013L146.52 227.77ZM146.52 255.07L146.52 257.07L148.52 257.07L148.52 255.07L146.52 255.07ZM44 255.07L44 225.742L40 225.742L40 255.07L44 255.07ZM42 227.742L113.76 227.742L113.76 223.742L42 223.742L42 227.742ZM115.76 225.742L115.76 197.818L111.76 197.818L111.76 225.742L115.76 225.742ZM113.76 199.818L133.572 199.818L133.572 195.818L113.76 195.818L113.76 199.818ZM131.572 197.818L131.572 201.718L135.572 201.718L135.572 197.818L131.572 197.818ZM131.572 201.718C131.572 207.519 132.162 212.912 134.236 217.651C136.337 222.455 139.898 226.444 145.564 229.527L147.476 226.013C142.534 223.324 139.621 219.981 137.9 216.048C136.152 212.052 135.572 207.305 135.572 201.718L131.572 201.718ZM144.52 227.77L144.52 255.07L148.52 255.07L148.52 227.77L144.52 227.77ZM146.52 253.07L42 253.07L42 257.07L146.52 257.07L146.52 253.07ZM42 346.778L40 346.778L40 348.778L42 348.778L42 346.778ZM42 317.45L42 315.45L40 315.45L40 317.45L42 317.45ZM146.52 317.45L148.52 317.45L148.52 315.45L146.52 315.45L146.52 317.45ZM146.52 357.23L147.329 359.059L148.52 358.532L148.52 357.23L146.52 357.23ZM103.152 376.418L103.865 378.287L103.914 378.268L103.961 378.247L103.152 376.418ZM76.164 386.714L75.4511 384.846L74.164 385.337L74.164 386.714L76.164 386.714ZM76.164 388.742L74.164 388.742L74.164 390.142L75.4796 390.622L76.164 388.742ZM103.152 398.57L103.928 396.727L103.883 396.708L103.836 396.691L103.152 398.57ZM146.52 416.822L148.52 416.822L148.52 415.494L147.296 414.979L146.52 416.822ZM146.52 456.602L146.52 458.602L148.52 458.602L148.52 456.602L146.52 456.602ZM42 456.602L40 456.602L40 458.602L42 458.602L42 456.602ZM42 427.274L42 425.274L40 425.274L40 427.274L42 427.274ZM85.212 427.274L85.3367 425.278L85.2744 425.274L85.212 425.274L85.212 427.274ZM102.684 428.366L102.559 430.362L104.684 430.495L104.684 428.366L102.684 428.366ZM102.684 426.338L104.684 426.338L104.684 424.905L103.327 424.444L102.684 426.338ZM85.212 420.41L84.4345 422.253L84.501 422.281L84.5694 422.304L85.212 420.41ZM48.24 404.81L46.24 404.81L46.24 406.137L47.4625 406.653L48.24 404.81ZM48.24 369.242L47.4625 367.4L46.24 367.915L46.24 369.242L48.24 369.242ZM85.212 353.642L84.5694 351.748L84.501 351.772L84.4345 351.8L85.212 353.642ZM102.684 347.714L103.327 349.608L104.684 349.148L104.684 347.714L102.684 347.714ZM102.684 345.686L104.684 345.686L104.684 343.557L102.559 343.69L102.684 345.686ZM85.212 346.778L85.212 348.778L85.2744 348.778L85.3367 348.774L85.212 346.778ZM44 346.778L44 317.45L40 317.45L40 346.778L44 346.778ZM42 319.45L146.52 319.45L146.52 315.45L42 315.45L42 319.45ZM144.52 317.45L144.52 357.23L148.52 357.23L148.52 317.45L144.52 317.45ZM145.711 355.401L102.343 374.589L103.961 378.247L147.329 359.059L145.711 355.401ZM102.439 374.55L75.4511 384.846L76.8769 388.583L103.865 378.287L102.439 374.55ZM74.164 386.714L74.164 388.742L78.164 388.742L78.164 386.714L74.164 386.714ZM75.4796 390.622L102.468 400.45L103.836 396.691L76.8483 386.863L75.4796 390.622ZM102.376 400.414L145.744 418.666L147.296 414.979L103.928 396.727L102.376 400.414ZM144.52 416.822L144.52 456.602L148.52 456.602L148.52 416.822L144.52 416.822ZM146.52 454.602L42 454.602L42 458.602L146.52 458.602L146.52 454.602ZM44 456.602L44 427.274L40 427.274L40 456.602L44 456.602ZM42 429.274L85.212 429.274L85.212 425.274L42 425.274L42 429.274ZM85.0872 429.27L102.559 430.362L102.809 426.37L85.3367 425.278L85.0872 429.27ZM104.684 428.366L104.684 426.338L100.684 426.338L100.684 428.366L104.684 428.366ZM103.327 424.444L85.8546 418.516L84.5694 422.304L102.041 428.232L103.327 424.444ZM85.9895 418.568L49.0175 402.968L47.4625 406.653L84.4345 422.253L85.9895 418.568ZM50.24 404.81L50.24 369.242L46.24 369.242L46.24 404.81L50.24 404.81ZM49.0175 371.085L85.9895 355.485L84.4345 351.8L47.4625 367.4L49.0175 371.085ZM85.8546 355.536L103.327 349.608L102.041 345.82L84.5694 351.748L85.8546 355.536ZM104.684 347.714L104.684 345.686L100.684 345.686L100.684 347.714L104.684 347.714ZM102.559 343.69L85.0872 344.782L85.3367 348.774L102.809 347.682L102.559 343.69ZM85.212 344.778L42 344.778L42 348.778L85.212 348.778L85.212 344.778ZM42 508.261L40 508.261L40 509.591L41.2265 510.106L42 508.261ZM42 475.345L42.7921 473.509L40 472.305L40 475.345L42 475.345ZM146.52 520.429L148.52 520.429L148.52 519.114L147.312 518.593L146.52 520.429ZM146.52 562.393L147.314 564.229L148.52 563.707L148.52 562.393L146.52 562.393ZM42 607.633L40 607.633L40 610.678L42.7944 609.469L42 607.633ZM42 573.937L41.2392 572.088L40 572.597L40 573.937L42 573.937ZM61.344 565.981L62.1047 567.831L63.344 567.321L63.344 565.981L61.344 565.981ZM61.344 516.373L63.344 516.373L63.344 515.043L62.1174 514.529L61.344 516.373ZM102.372 533.533L101.606 535.381L101.633 535.392L101.661 535.403L102.372 533.533ZM87.708 527.449L88.4744 525.602L85.708 524.454L85.708 527.449L87.708 527.449ZM87.708 555.217L85.708 555.217L85.708 558.213L88.4744 557.065L87.708 555.217ZM102.372 549.133L101.646 547.27L101.626 547.278L101.606 547.286L102.372 549.133ZM120 542.269L120.726 544.133L122 543.637L122 542.269L120 542.269ZM120 540.241L122 540.241L122 538.863L120.711 538.372L120 540.241ZM44 508.261L44 475.345L40 475.345L40 508.261L44 508.261ZM41.2078 477.182L145.728 522.266L147.312 518.593L42.7921 473.509L41.2078 477.182ZM144.52 520.429L144.52 562.393L148.52 562.393L148.52 520.429L144.52 520.429ZM145.726 560.558L41.2055 605.798L42.7944 609.469L147.314 564.229L145.726 560.558ZM44 607.633L44 573.937L40 573.937L40 607.633L44 607.633ZM42.7607 575.787L62.1047 567.831L60.5832 564.132L41.2392 572.088L42.7607 575.787ZM63.344 565.981L63.344 516.373L59.344 516.373L59.344 565.981L63.344 565.981ZM62.1174 514.529L42.7734 506.417L41.2265 510.106L60.5705 518.218L62.1174 514.529ZM103.138 531.686L88.4744 525.602L86.9415 529.297L101.606 535.381L103.138 531.686ZM85.708 527.449L85.708 555.217L89.708 555.217L89.708 527.449L85.708 527.449ZM88.4744 557.065L103.138 550.981L101.606 547.286L86.9415 553.37L88.4744 557.065ZM103.098 550.997L120.726 544.133L119.274 540.406L101.646 547.27L103.098 550.997ZM122 542.269L122 540.241L118 540.241L118 542.269L122 542.269ZM120.711 538.372L103.083 531.664L101.661 535.403L119.289 542.111L120.711 538.372ZM42 655.701L40 655.701L40 657.701L42 657.701L42 655.701ZM42 626.373L42 624.373L40 624.373L40 626.373L42 626.373ZM146.52 626.373L148.52 626.373L148.52 624.373L146.52 624.373L146.52 626.373ZM85.68 701.253L87.6645 701.005L87.4455 699.253L85.68 699.253L85.68 701.253ZM84.12 701.253L84.12 699.253L82.5748 699.253L82.1847 700.748L84.12 701.253ZM68.208 719.349L67.3276 717.553L67.3221 717.556L68.208 719.349ZM42 732.297L40 732.297L40 735.516L42.8858 734.09L42 732.297ZM42 698.445L41.1231 696.647L40 697.195L40 698.445L42 698.445ZM67.584 685.965L66.7185 684.162L66.7071 684.167L67.584 685.965ZM77.568 655.701L79.568 655.701L79.568 653.701L77.568 653.701L77.568 655.701ZM120.156 655.701L122.156 655.701L122.156 653.701L120.156 653.701L120.156 655.701ZM99.408 655.701L99.408 653.701L97.408 653.701L97.408 655.701L99.408 655.701ZM44 655.701L44 626.373L40 626.373L40 655.701L44 655.701ZM42 628.373L146.52 628.373L146.52 624.373L42 624.373L42 628.373ZM144.52 626.373L144.52 687.369L148.52 687.369L148.52 626.373L144.52 626.373ZM144.52 687.369C144.52 700.939 141.677 710.969 136.608 717.565C131.603 724.077 124.237 727.489 114.54 727.489L114.54 731.489C125.279 731.489 133.903 727.647 139.779 720.002C145.591 712.441 148.52 701.411 148.52 687.369L144.52 687.369ZM114.54 727.489C106.602 727.489 100.569 725.51 96.2175 721.404C91.8424 717.276 88.8801 710.729 87.6645 701.005L83.6954 701.501C84.9759 711.745 88.1756 719.316 93.4724 724.314C98.7929 729.334 105.942 731.489 114.54 731.489L114.54 727.489ZM85.68 699.253L84.12 699.253L84.12 703.253L85.68 703.253L85.68 699.253ZM82.1847 700.748C80.8475 705.874 79.0014 709.088 76.6648 711.476C74.2889 713.905 71.2826 715.614 67.3277 717.553L69.0883 721.145C73.0894 719.184 76.635 717.227 79.5241 714.274C82.4526 711.28 84.5845 707.396 86.0552 701.758L82.1847 700.748ZM67.3221 717.556L41.1141 730.504L42.8858 734.09L69.0938 721.142L67.3221 717.556ZM44 732.297L44 698.445L40 698.445L40 732.297L44 732.297ZM42.8768 700.243L68.4608 687.763L66.7071 684.167L41.1231 696.647L42.8768 700.243ZM68.4494 687.768C72.4352 685.855 75.4038 683.918 77.239 680.695C79.0362 677.538 79.568 673.453 79.568 667.713L75.568 667.713C75.568 673.361 75.0078 676.53 73.7629 678.716C72.5561 680.836 70.5327 682.331 66.7185 684.162L68.4494 687.768ZM79.568 667.713L79.568 655.701L75.568 655.701L75.568 667.713L79.568 667.713ZM77.568 653.701L42 653.701L42 657.701L77.568 657.701L77.568 653.701ZM120.156 653.701L99.408 653.701L99.408 657.701L120.156 657.701L120.156 653.701ZM97.408 655.701L97.408 687.057L101.408 687.057L101.408 655.701L97.408 655.701ZM97.408 687.057C97.408 691.283 97.7432 694.913 99.7457 697.384C101.859 699.991 105.316 700.757 109.86 700.757L109.86 696.757C105.512 696.757 103.743 695.963 102.853 694.865C101.853 693.631 101.408 691.411 101.408 687.057L97.408 687.057ZM109.86 700.757C114.142 700.757 117.511 699.971 119.646 697.403C121.686 694.95 122.156 691.353 122.156 687.057L118.156 687.057C118.156 691.341 117.612 693.594 116.571 694.846C115.625 695.983 113.846 696.757 109.86 696.757L109.86 700.757ZM122.156 687.057L122.156 655.701L118.156 655.701L118.156 687.057L122.156 687.057ZM42 781.903L40 781.903L40 783.903L42 783.903L42 781.903ZM42 752.575L42 750.575L40 750.575L40 752.575L42 752.575ZM146.52 752.575L148.52 752.575L148.52 750.575L146.52 750.575L146.52 752.575ZM146.52 781.903L146.52 783.903L148.52 783.903L148.52 781.903L146.52 781.903ZM107.676 781.903L107.676 779.903L105.676 779.903L105.676 781.903L107.676 781.903ZM107.676 802.963L105.676 802.963L105.676 804.044L106.581 804.636L107.676 802.963ZM146.52 828.391L148.52 828.391L148.52 827.309L147.615 826.717L146.52 828.391ZM146.52 863.491L145.367 865.125L148.52 867.348L148.52 863.491L146.52 863.491ZM95.196 827.299L96.3486 825.664L95.2285 824.874L94.0877 825.634L95.196 827.299ZM42 862.711L40 862.711L40 866.445L43.1082 864.375L42 862.711ZM42 827.611L40.9036 825.938L40 826.53L40 827.611L42 827.611ZM79.128 803.275L80.2244 804.947L81.128 804.355L81.128 803.275L79.128 803.275ZM79.128 781.903L81.128 781.903L81.128 779.903L79.128 779.903L79.128 781.903ZM44 781.903L44 752.575L40 752.575L40 781.903L44 781.903ZM42 754.575L146.52 754.575L146.52 750.575L42 750.575L42 754.575ZM144.52 752.575L144.52 781.903L148.52 781.903L148.52 752.575L144.52 752.575ZM146.52 779.903L107.676 779.903L107.676 783.903L146.52 783.903L146.52 779.903ZM105.676 781.903L105.676 802.963L109.676 802.963L109.676 781.903L105.676 781.903ZM106.581 804.636L145.425 830.064L147.615 826.717L108.771 801.289L106.581 804.636ZM144.52 828.391L144.52 863.491L148.52 863.491L148.52 828.391L144.52 828.391ZM147.673 861.856L96.3486 825.664L94.0434 828.933L145.367 865.125L147.673 861.856ZM94.0877 825.634L40.8917 861.046L43.1082 864.375L96.3042 828.963L94.0877 825.634ZM44 862.711L44 827.611L40 827.611L40 862.711L44 862.711ZM43.0964 829.283L80.2244 804.947L78.0316 801.602L40.9036 825.938L43.0964 829.283ZM81.128 803.275L81.128 781.903L77.128 781.903L77.128 803.275L81.128 803.275ZM79.128 779.903L42 779.903L42 783.903L79.128 783.903L79.128 779.903ZM42 975.1L40 975.1L40 977.1L42 977.1L42 975.1ZM42 882.28L42 880.28L40 880.28L40 882.28L42 882.28ZM146.52 882.28L148.52 882.28L148.52 880.28L146.52 880.28L146.52 882.28ZM146.52 975.1L146.52 977.1L148.52 977.1L148.52 975.1L146.52 975.1ZM120.156 975.1L118.156 975.1L118.156 977.1L120.156 977.1L120.156 975.1ZM120.156 911.608L122.156 911.608L122.156 909.608L120.156 909.608L120.156 911.608ZM107.676 911.608L107.676 909.608L105.676 909.608L105.676 911.608L107.676 911.608ZM107.676 972.76L107.676 974.76L109.676 974.76L109.676 972.76L107.676 972.76ZM81.468 972.76L79.468 972.76L79.468 974.76L81.468 974.76L81.468 972.76ZM81.468 911.608L83.468 911.608L83.468 909.608L81.468 909.608L81.468 911.608ZM68.364 911.608L68.364 909.608L66.364 909.608L66.364 911.608L68.364 911.608ZM68.364 975.1L68.364 977.1L70.364 977.1L70.364 975.1L68.364 975.1ZM44 975.1L44 882.28L40 882.28L40 975.1L44 975.1ZM42 884.28L146.52 884.28L146.52 880.28L42 880.28L42 884.28ZM144.52 882.28L144.52 975.1L148.52 975.1L148.52 882.28L144.52 882.28ZM146.52 973.1L120.156 973.1L120.156 977.1L146.52 977.1L146.52 973.1ZM122.156 975.1L122.156 911.608L118.156 911.608L118.156 975.1L122.156 975.1ZM120.156 909.608L107.676 909.608L107.676 913.608L120.156 913.608L120.156 909.608ZM105.676 911.608L105.676 972.76L109.676 972.76L109.676 911.608L105.676 911.608ZM107.676 970.76L81.468 970.76L81.468 974.76L107.676 974.76L107.676 970.76ZM83.468 972.76L83.468 911.608L79.468 911.608L79.468 972.76L83.468 972.76ZM81.468 909.608L68.364 909.608L68.364 913.608L81.468 913.608L81.468 909.608ZM66.364 911.608L66.364 975.1L70.364 975.1L70.364 911.608L66.364 911.608ZM68.364 973.1L42 973.1L42 977.1L68.364 977.1L68.364 973.1Z" fill="#1F2326" mask="url(#path-1-outside-1_358_16)"/>
</g>
<defs>
<clipPath id="clip0_358_16">
<rect width="188" height="1021" fill="white"/>
</clipPath>
</defs>
</svg>
