<svg width="188" height="676" viewBox="0 0 188 676" fill="none" xmlns="http://www.w3.org/2000/svg">
<g clip-path="url(#clip0_358_29)">
<mask id="path-1-outside-1_358_29" maskUnits="userSpaceOnUse" x="24" y="17" width="141" height="640" fill="black">
<rect fill="white" x="24" y="17" width="141" height="640"/>
<path d="M42 53.0646L42 20.1486L146.52 65.2326L146.52 107.197L42 152.437L42 118.741L61.344 110.785L61.344 61.1766L42 53.0646ZM102.372 78.3366L87.708 72.2526L87.708 100.021L102.372 93.9366L120 87.0726L120 85.0446L102.372 78.3366ZM42 200.504L42 171.176L146.52 171.176L146.52 229.052C146.52 253.856 132.324 269.456 107.52 269.456C82.716 269.456 68.364 253.856 68.364 229.052L68.364 200.504L42 200.504ZM120.156 225.776L120.156 200.504L94.728 200.504L94.728 225.776C94.728 236.072 96.756 240.284 107.52 240.284C118.128 240.284 120.156 236.072 120.156 225.776ZM26.4 355.657L26.4 328.669L162.12 328.669L162.12 355.657L26.4 355.657ZM42 447.392L42 418.064L146.52 418.064L146.52 447.392L107.676 447.392L107.676 468.452L146.52 493.88L146.52 528.98L95.196 492.788L42 528.2L42 493.1L79.128 468.764L79.128 447.392L42 447.392ZM42 577.098L42 547.77L146.52 547.77L146.52 608.766C146.52 636.378 134.976 650.886 114.54 650.886C98.004 650.886 88.176 642.618 85.68 622.65L84.12 622.65C81.312 633.414 76.164 636.846 68.208 640.746L42 653.694L42 619.842L67.584 607.362C75.384 603.618 77.568 600.498 77.568 589.11L77.568 577.098L42 577.098ZM120.156 577.098L99.408 577.098L99.408 608.454C99.408 617.034 100.968 620.154 109.86 620.154C118.128 620.154 120.156 617.034 120.156 608.454L120.156 577.098Z"/>
</mask>
<path d="M42 53.0646L40 53.0646L40 54.3946L41.2265 54.909L42 53.0646ZM42 20.1486L42.7921 18.3121L40 17.1078L40 20.1486L42 20.1486ZM146.52 65.2326L148.52 65.2326L148.52 63.9171L147.312 63.3961L146.52 65.2326ZM146.52 107.197L147.314 109.032L148.52 108.51L148.52 107.197L146.52 107.197ZM42 152.437L40 152.437L40 155.482L42.7944 154.272L42 152.437ZM42 118.741L41.2392 116.891L40 117.401L40 118.741L42 118.741ZM61.344 110.785L62.1047 112.634L63.344 112.125L63.344 110.785L61.344 110.785ZM61.344 61.1766L63.344 61.1766L63.344 59.8466L62.1175 59.3322L61.344 61.1766ZM102.372 78.3366L101.606 80.1839L101.633 80.1953L101.661 80.2058L102.372 78.3366ZM87.708 72.2526L88.4744 70.4053L85.708 69.2575L85.708 72.2526L87.708 72.2526ZM87.708 100.021L85.708 100.021L85.708 103.016L88.4744 101.868L87.708 100.021ZM102.372 93.9366L101.646 92.0729L101.626 92.0809L101.606 92.0893L102.372 93.9366ZM120 87.0726L120.726 88.9363L122 88.4401L122 87.0726L120 87.0726ZM120 85.0446L122 85.0446L122 83.6657L120.711 83.1754L120 85.0446ZM44 53.0646L44 20.1486L40 20.1486L40 53.0646L44 53.0646ZM41.2079 21.985L145.728 67.069L147.312 63.3961L42.7921 18.3121L41.2079 21.985ZM144.52 65.2326L144.52 107.197L148.52 107.197L148.52 65.2326L144.52 65.2326ZM145.726 105.361L41.2055 150.601L42.7944 154.272L147.314 109.032L145.726 105.361ZM44 152.437L44 118.741L40 118.741L40 152.437L44 152.437ZM42.7607 120.59L62.1047 112.634L60.5832 108.935L41.2392 116.891L42.7607 120.59ZM63.344 110.785L63.344 61.1766L59.344 61.1766L59.344 110.785L63.344 110.785ZM62.1175 59.3322L42.7735 51.2202L41.2265 54.909L60.5705 63.021L62.1175 59.3322ZM103.138 76.4893L88.4744 70.4053L86.9416 74.0999L101.606 80.1839L103.138 76.4893ZM85.708 72.2526L85.708 100.021L89.708 100.021L89.708 72.2526L85.708 72.2526ZM88.4744 101.868L103.138 95.7839L101.606 92.0893L86.9416 98.1733L88.4744 101.868ZM103.098 95.8003L120.726 88.9363L119.274 85.2089L101.646 92.0729L103.098 95.8003ZM122 87.0726L122 85.0446L118 85.0446L118 87.0726L122 87.0726ZM120.711 83.1754L103.083 76.4673L101.661 80.2058L119.289 86.9138L120.711 83.1754ZM42 200.504L40 200.504L40 202.504L42 202.504L42 200.504ZM42 171.176L42 169.176L40 169.176L40 171.176L42 171.176ZM146.52 171.176L148.52 171.176L148.52 169.176L146.52 169.176L146.52 171.176ZM68.364 200.504L70.364 200.504L70.364 198.504L68.364 198.504L68.364 200.504ZM120.156 200.504L122.156 200.504L122.156 198.504L120.156 198.504L120.156 200.504ZM94.728 200.504L94.728 198.504L92.728 198.504L92.728 200.504L94.728 200.504ZM44 200.504L44 171.176L40 171.176L40 200.504L44 200.504ZM42 173.176L146.52 173.176L146.52 169.176L42 169.176L42 173.176ZM144.52 171.176L144.52 229.052L148.52 229.052L148.52 171.176L144.52 171.176ZM144.52 229.052C144.52 241.08 141.083 250.639 134.871 257.178C128.674 263.703 119.492 267.456 107.52 267.456L107.52 271.456C120.352 271.456 130.67 267.409 137.772 259.933C144.859 252.471 148.52 241.828 148.52 229.052L144.52 229.052ZM107.52 267.456C95.5474 267.456 86.324 263.702 80.0866 257.174C73.8371 250.633 70.364 241.075 70.364 229.052L66.364 229.052C66.364 241.834 70.0669 252.477 77.1944 259.937C84.334 267.41 94.6885 271.456 107.52 271.456L107.52 267.456ZM70.364 229.052L70.364 200.504L66.364 200.504L66.364 229.052L70.364 229.052ZM68.364 198.504L42 198.504L42 202.504L68.364 202.504L68.364 198.504ZM122.156 225.776L122.156 200.504L118.156 200.504L118.156 225.776L122.156 225.776ZM120.156 198.504L94.728 198.504L94.728 202.504L120.156 202.504L120.156 198.504ZM92.728 200.504L92.728 225.776L96.728 225.776L96.728 200.504L92.728 200.504ZM92.728 225.776C92.728 230.89 93.1891 235.189 95.5194 238.132C97.9645 241.221 101.982 242.284 107.52 242.284L107.52 238.284C102.294 238.284 99.9155 237.241 98.6556 235.65C97.2809 233.913 96.728 230.958 96.728 225.776L92.728 225.776ZM107.52 242.284C112.988 242.284 116.968 241.217 119.39 238.124C121.694 235.184 122.156 230.892 122.156 225.776L118.156 225.776C118.156 230.956 117.604 233.919 116.242 235.658C114.998 237.245 112.66 238.284 107.52 238.284L107.52 242.284ZM26.4 355.657L24.4 355.657L24.4 357.657L26.4 357.657L26.4 355.657ZM26.4 328.669L26.4 326.669L24.4 326.669L24.4 328.669L26.4 328.669ZM162.12 328.669L164.12 328.669L164.12 326.669L162.12 326.669L162.12 328.669ZM162.12 355.657L162.12 357.657L164.12 357.657L164.12 355.657L162.12 355.657ZM28.4 355.657L28.4 328.669L24.4 328.669L24.4 355.657L28.4 355.657ZM26.4 330.669L162.12 330.669L162.12 326.669L26.4 326.669L26.4 330.669ZM160.12 328.669L160.12 355.657L164.12 355.657L164.12 328.669L160.12 328.669ZM162.12 353.657L26.4 353.657L26.4 357.657L162.12 357.657L162.12 353.657ZM42 447.392L40 447.392L40 449.392L42 449.392L42 447.392ZM42 418.064L42 416.064L40 416.064L40 418.064L42 418.064ZM146.52 418.064L148.52 418.064L148.52 416.064L146.52 416.064L146.52 418.064ZM146.52 447.392L146.52 449.392L148.52 449.392L148.52 447.392L146.52 447.392ZM107.676 447.392L107.676 445.392L105.676 445.392L105.676 447.392L107.676 447.392ZM107.676 468.452L105.676 468.452L105.676 469.534L106.581 470.126L107.676 468.452ZM146.52 493.88L148.52 493.88L148.52 492.799L147.615 492.207L146.52 493.88ZM146.52 528.98L145.367 530.615L148.52 532.838L148.52 528.98L146.52 528.98ZM95.196 492.788L96.3486 491.154L95.2285 490.364L94.0877 491.124L95.196 492.788ZM42 528.2L40 528.2L40 531.934L43.1082 529.865L42 528.2ZM42 493.1L40.9036 491.428L40 492.02L40 493.1L42 493.1ZM79.128 468.764L80.2244 470.437L81.128 469.845L81.128 468.764L79.128 468.764ZM79.128 447.392L81.128 447.392L81.128 445.392L79.128 445.392L79.128 447.392ZM44 447.392L44 418.064L40 418.064L40 447.392L44 447.392ZM42 420.064L146.52 420.064L146.52 416.064L42 416.064L42 420.064ZM144.52 418.064L144.52 447.392L148.52 447.392L148.52 418.064L144.52 418.064ZM146.52 445.392L107.676 445.392L107.676 449.392L146.52 449.392L146.52 445.392ZM105.676 447.392L105.676 468.452L109.676 468.452L109.676 447.392L105.676 447.392ZM106.581 470.126L145.425 495.554L147.615 492.207L108.771 466.779L106.581 470.126ZM144.52 493.88L144.52 528.98L148.52 528.98L148.52 493.88L144.52 493.88ZM147.673 527.346L96.3486 491.154L94.0434 494.423L145.367 530.615L147.673 527.346ZM94.0877 491.124L40.8917 526.536L43.1082 529.865L96.3043 494.453L94.0877 491.124ZM44 528.2L44 493.1L40 493.1L40 528.2L44 528.2ZM43.0964 494.773L80.2244 470.437L78.0316 467.092L40.9036 491.428L43.0964 494.773ZM81.128 468.764L81.128 447.392L77.128 447.392L77.128 468.764L81.128 468.764ZM79.128 445.392L42 445.392L42 449.392L79.128 449.392L79.128 445.392ZM42 577.098L40 577.098L40 579.098L42 579.098L42 577.098ZM42 547.77L42 545.77L40 545.77L40 547.77L42 547.77ZM146.52 547.77L148.52 547.77L148.52 545.77L146.52 545.77L146.52 547.77ZM85.68 622.65L87.6645 622.402L87.4455 620.65L85.68 620.65L85.68 622.65ZM84.12 622.65L84.12 620.65L82.5748 620.65L82.1847 622.145L84.12 622.65ZM68.208 640.746L67.3277 638.95L67.3221 638.953L68.208 640.746ZM42 653.694L40 653.694L40 656.913L42.8858 655.487L42 653.694ZM42 619.842L41.1231 618.044L40 618.592L40 619.842L42 619.842ZM67.584 607.362L66.7185 605.559L66.7071 605.564L67.584 607.362ZM77.568 577.098L79.568 577.098L79.568 575.098L77.568 575.098L77.568 577.098ZM120.156 577.098L122.156 577.098L122.156 575.098L120.156 575.098L120.156 577.098ZM99.408 577.098L99.408 575.098L97.408 575.098L97.408 577.098L99.408 577.098ZM44 577.098L44 547.77L40 547.77L40 577.098L44 577.098ZM42 549.77L146.52 549.77L146.52 545.77L42 545.77L42 549.77ZM144.52 547.77L144.52 608.766L148.52 608.766L148.52 547.77L144.52 547.77ZM144.52 608.766C144.52 622.336 141.677 632.366 136.608 638.962C131.603 645.473 124.237 648.886 114.54 648.886L114.54 652.886C125.279 652.886 133.903 649.044 139.779 641.399C145.591 633.837 148.52 622.807 148.52 608.766L144.52 608.766ZM114.54 648.886C106.602 648.886 100.569 646.907 96.2175 642.801C91.8424 638.673 88.8801 632.126 87.6645 622.402L83.6954 622.898C84.9759 633.142 88.1756 640.713 93.4724 645.711C98.7929 650.731 105.942 652.886 114.54 652.886L114.54 648.886ZM85.68 620.65L84.12 620.65L84.12 624.65L85.68 624.65L85.68 620.65ZM82.1847 622.145C80.8475 627.271 79.0014 630.485 76.6648 632.873C74.2889 635.302 71.2826 637.011 67.3277 638.95L69.0883 642.542C73.0894 640.58 76.635 638.624 79.5241 635.67C82.4526 632.677 84.5845 628.793 86.0552 623.155L82.1847 622.145ZM67.3221 638.953L41.1141 651.901L42.8858 655.487L69.0939 642.539L67.3221 638.953ZM44 653.694L44 619.842L40 619.842L40 653.694L44 653.694ZM42.8768 621.639L68.4608 609.159L66.7071 605.564L41.1231 618.044L42.8768 621.639ZM68.4494 609.165C72.4352 607.252 75.4038 605.315 77.239 602.092C79.0362 598.935 79.568 594.85 79.568 589.11L75.568 589.11C75.568 594.758 75.0078 597.926 73.7629 600.113C72.5561 602.232 70.5327 603.728 66.7185 605.559L68.4494 609.165ZM79.568 589.11L79.568 577.098L75.568 577.098L75.568 589.11L79.568 589.11ZM77.568 575.098L42 575.098L42 579.098L77.568 579.098L77.568 575.098ZM120.156 575.098L99.408 575.098L99.408 579.098L120.156 579.098L120.156 575.098ZM97.408 577.098L97.408 608.454L101.408 608.454L101.408 577.098L97.408 577.098ZM97.408 608.454C97.408 612.68 97.7432 616.31 99.7457 618.781C101.859 621.388 105.316 622.154 109.86 622.154L109.86 618.154C105.512 618.154 103.743 617.36 102.853 616.262C101.853 615.028 101.408 612.808 101.408 608.454L97.408 608.454ZM109.86 622.154C114.142 622.154 117.511 621.367 119.646 618.8C121.686 616.347 122.156 612.75 122.156 608.454L118.156 608.454C118.156 612.737 117.612 614.99 116.571 616.243C115.625 617.38 113.846 618.154 109.86 618.154L109.86 622.154ZM122.156 608.454L122.156 577.098L118.156 577.098L118.156 608.454L122.156 608.454Z" fill="white" mask="url(#path-1-outside-1_358_29)"/>
</g>
<defs>
<clipPath id="clip0_358_29">
<rect width="188" height="676" fill="white"/>
</clipPath>
</defs>
</svg>
