<svg width="245" height="293" viewBox="0 0 245 293" fill="none" xmlns="http://www.w3.org/2000/svg">
<g clip-path="url(#clip0_0_276)">
<path fill-rule="evenodd" clip-rule="evenodd" d="M201.142 85.8918C202.843 90.002 205.49 94.7611 207.569 99.5203C214.186 116.177 217.022 133.267 216.454 152.087H152.369C152.747 123.749 152.369 94.9774 152.369 66.6388C152.369 37.6512 154.448 53.0103 144.429 33.1084C140.459 25.1044 135.733 12.5575 134.032 1.95757L123.823 1.30859V292.05C128.927 292.915 148.021 289.238 152.369 287.074V184.752H210.594C207.948 197.516 198.117 212.875 192.257 220.662C185.64 229.748 185.64 225.422 185.64 241.213C185.64 250.732 185.451 260.25 185.64 269.768C191.123 267.605 205.679 252.246 209.082 248.136C215.509 240.132 221.37 232.56 227.041 221.528C246.701 183.671 251.427 133.051 235.17 90.6509C208.326 90.002 214.186 87.4061 201.142 85.8918Z" fill="#1F2326"/>
<path fill-rule="evenodd" clip-rule="evenodd" d="M7.62939e-06 90.651C2.45757 99.304 7.56174 109.904 10.9645 118.557L73.9159 273.013C75.2392 276.258 78.0749 285.127 80.3434 286.425C84.8804 289.021 104.919 292.482 110.968 292.266L110.779 0.875977L100.76 2.39025C97.7353 17.3167 91.4969 32.4595 84.8804 42.8431C81.4776 48.0349 82.4228 47.6022 82.4228 55.1736C82.4228 75.9408 83.179 208.981 82.0448 215.903L29.8688 86.9734C18.5262 88.704 12.8549 90.8673 7.62939e-06 90.651Z" fill="#1F2326"/>
</g>
<defs>
<clipPath id="clip0_0_276">
<rect width="245" height="291.429" fill="white" transform="translate(0 0.856934)"/>
</clipPath>
</defs>
</svg>
