<svg width="369" height="107" viewBox="0 0 369 107" fill="none" xmlns="http://www.w3.org/2000/svg">
<mask id="path-1-outside-1_0_282" maskUnits="userSpaceOnUse" x="-2" y="-2" width="373" height="111" fill="black">
<rect fill="white" x="-2" y="-2" width="373" height="111"/>
<path d="M29.9451 105H0.617103V0.479997L29.9451 0.479997V39.324L78.6171 39.324V0.479997L107.945 0.479997V105H78.6171V65.688L29.9451 65.688V105ZM185.64 106.56C149.136 106.56 132.288 88.932 132.288 61.164V0.479997L161.616 0.479997V58.824C161.616 73.644 165.828 78.168 185.64 78.168C205.452 78.168 209.664 73.644 209.664 58.824V0.479997L238.992 0.479997V61.164C238.992 88.932 222.144 106.56 185.64 106.56ZM333.424 105H263.38V0.479997L329.836 0.479997C352.456 0.479997 363.688 9.37199 363.688 25.752C363.688 39.168 356.668 48.684 337.636 49.464V51.024C358.54 51.804 368.524 61.476 368.524 75.984C368.524 93.612 358.384 105 333.424 105ZM292.552 26.844V40.104L326.716 40.104C332.644 40.104 334.36 38.388 334.36 33.552C334.36 28.716 332.02 26.844 325.936 26.844L292.552 26.844ZM292.552 64.128V78.636L329.68 78.636C336.7 78.636 338.884 77.232 338.884 71.304C338.884 65.532 336.856 64.128 329.68 64.128L292.552 64.128Z"/>
</mask>
<path d="M29.9451 105V107H31.9451V105H29.9451ZM0.617096 105H-1.3829V107H0.617096V105ZM0.617096 0.479996V-1.52H-1.3829V0.479996H0.617096ZM29.9451 0.479996H31.9451V-1.52H29.9451V0.479996ZM29.9451 39.324H27.9451V41.324H29.9451V39.324ZM78.6171 39.324V41.324H80.6171V39.324H78.6171ZM78.6171 0.479996V-1.52H76.6171V0.479996H78.6171ZM107.945 0.479996H109.945V-1.52H107.945V0.479996ZM107.945 105V107H109.945V105H107.945ZM78.6171 105H76.6171V107H78.6171V105ZM78.6171 65.688H80.6171V63.688H78.6171V65.688ZM29.9451 65.688V63.688H27.9451V65.688H29.9451ZM29.9451 103H0.617096V107H29.9451V103ZM2.6171 105V0.479996H-1.3829V105H2.6171ZM0.617096 2.48L29.9451 2.48V-1.52L0.617096 -1.52V2.48ZM27.9451 0.479996V39.324H31.9451V0.479996H27.9451ZM29.9451 41.324L78.6171 41.324V37.324L29.9451 37.324V41.324ZM80.6171 39.324V0.479996H76.6171V39.324H80.6171ZM78.6171 2.48L107.945 2.48V-1.52L78.6171 -1.52V2.48ZM105.945 0.479996V105H109.945V0.479996H105.945ZM107.945 103H78.6171V107H107.945V103ZM80.6171 105V65.688H76.6171V105H80.6171ZM78.6171 63.688L29.9451 63.688V67.688L78.6171 67.688V63.688ZM27.9451 65.688V105H31.9451V65.688H27.9451ZM132.288 0.479996V-1.52H130.288V0.479996H132.288ZM161.616 0.479996H163.616V-1.52H161.616V0.479996ZM209.664 0.479996V-1.52H207.664V0.479996H209.664ZM238.992 0.479996H240.992V-1.52H238.992V0.479996ZM185.64 104.56C167.682 104.56 154.894 100.223 146.612 92.7868C138.363 85.381 134.288 74.6359 134.288 61.164H130.288C130.288 75.4601 134.638 87.413 143.939 95.7632C153.207 104.083 167.095 108.56 185.64 108.56V104.56ZM134.288 61.164V0.479996L130.288 0.479996V61.164H134.288ZM132.288 2.48L161.616 2.48V-1.52L132.288 -1.52V2.48ZM159.616 0.479996V58.824H163.616V0.479996H159.616ZM159.616 58.824C159.616 66.2706 160.632 71.9664 164.908 75.5809C169.053 79.0847 175.764 80.168 185.64 80.168V76.168C175.705 76.168 170.404 74.9893 167.49 72.5261C164.707 70.1736 163.616 66.1974 163.616 58.824H159.616ZM185.64 80.168C195.517 80.168 202.228 79.0847 206.373 75.5809C210.649 71.9664 211.664 66.2706 211.664 58.824H207.664C207.664 66.1974 206.574 70.1736 203.791 72.5261C200.877 74.9893 195.576 76.168 185.64 76.168V80.168ZM211.664 58.824V0.479996L207.664 0.479996V58.824H211.664ZM209.664 2.48L238.992 2.48V-1.52L209.664 -1.52V2.48ZM236.992 0.479996V61.164H240.992V0.479996H236.992ZM236.992 61.164C236.992 74.6359 232.918 85.381 224.669 92.7868C216.387 100.223 203.599 104.56 185.64 104.56V108.56C204.186 108.56 218.074 104.083 227.342 95.7632C236.643 87.413 240.992 75.4601 240.992 61.164H236.992ZM263.38 105H261.38V107H263.38V105ZM263.38 0.479996V-1.52H261.38V0.479996H263.38ZM337.636 49.464L337.554 47.4657L335.636 47.5443V49.464H337.636ZM337.636 51.024H335.636V52.9508L337.561 53.0226L337.636 51.024ZM292.552 26.844V24.844H290.552V26.844H292.552ZM292.552 40.104H290.552V42.104H292.552V40.104ZM292.552 64.128V62.128H290.552V64.128H292.552ZM292.552 78.636H290.552V80.636H292.552V78.636ZM333.424 103H263.38V107H333.424V103ZM265.38 105V0.479996H261.38V105H265.38ZM263.38 2.48L329.836 2.48V-1.52L263.38 -1.52V2.48ZM329.836 2.48C340.935 2.48 348.893 4.67004 354.036 8.56752C359.082 12.3914 361.688 18.0651 361.688 25.752H365.688C365.688 17.0589 362.677 10.0966 356.452 5.37947C350.324 0.735954 341.356 -1.52 329.836 -1.52V2.48ZM361.688 25.752C361.688 32.1223 360.026 37.2735 356.381 40.9356C352.724 44.6097 346.771 47.0879 337.554 47.4657L337.717 51.4623C347.533 51.0601 354.605 48.3903 359.216 43.7574C363.839 39.1125 365.688 32.7977 365.688 25.752H361.688ZM335.636 49.464V51.024H339.636V49.464H335.636ZM337.561 53.0226C347.748 53.4027 354.976 55.9419 359.626 59.8819C364.22 63.7746 366.524 69.2248 366.524 75.984H370.524C370.524 68.2352 367.835 61.5954 362.212 56.8301C356.643 52.1121 348.427 49.4253 337.71 49.0254L337.561 53.0226ZM366.524 75.984C366.524 84.4136 364.111 91.0478 359.001 95.6108C353.852 100.21 345.637 103 333.424 103V107C346.17 107 355.506 104.096 361.666 98.5942C367.867 93.0562 370.524 85.1824 370.524 75.984H366.524ZM290.552 26.844V40.104H294.552V26.844H290.552ZM292.552 42.104L326.716 42.104V38.104L292.552 38.104V42.104ZM326.716 42.104C329.74 42.104 332.322 41.6974 334.085 40.1404C335.929 38.5113 336.36 36.1063 336.36 33.552H332.36C332.36 35.8337 331.932 36.7047 331.437 37.1426C330.859 37.6526 329.619 38.104 326.716 38.104V42.104ZM336.36 33.552C336.36 30.8397 335.698 28.4328 333.676 26.8205C331.776 25.3064 329.082 24.844 325.936 24.844V28.844C328.873 28.844 330.391 29.3176 331.182 29.9484C331.851 30.4812 332.36 31.4283 332.36 33.552H336.36ZM325.936 24.844L292.552 24.844V28.844L325.936 28.844V24.844ZM290.552 64.128V78.636H294.552V64.128H290.552ZM292.552 80.636L329.68 80.636V76.636L292.552 76.636V80.636ZM329.68 80.636C333.151 80.636 336.11 80.3308 338.131 78.7799C340.336 77.0885 340.884 74.4035 340.884 71.304H336.884C336.884 74.1325 336.339 75.1135 335.697 75.6061C334.871 76.2392 333.228 76.636 329.68 76.636V80.636ZM340.884 71.304C340.884 68.3036 340.384 65.6408 338.187 63.9622C336.182 62.4311 333.219 62.128 329.68 62.128V66.128C333.316 66.128 334.955 66.5269 335.758 67.1408C336.369 67.6072 336.884 68.5324 336.884 71.304H340.884ZM329.68 62.128L292.552 62.128V66.128L329.68 66.128V62.128Z" fill="#1F2326" mask="url(#path-1-outside-1_0_282)"/>
</svg>
