<svg width="519" height="109" viewBox="0 0 519 109" fill="none" xmlns="http://www.w3.org/2000/svg">
<mask id="path-1-outside-1_0_281" maskUnits="userSpaceOnUse" x="-3" y="-2" width="524" height="113" fill="black">
<rect fill="white" x="-3" y="-2" width="524" height="113"/>
<path d="M84.9912 107H42.8712L0.907193 2.48L36.3192 2.48L63.3072 77.36H65.3352L91.6992 2.48L126.955 2.48L84.9912 107ZM172.365 107H139.449L184.533 2.48L226.497 2.48L271.737 107L238.041 107L230.085 87.656H180.477L172.365 107ZM197.637 46.628L191.553 61.292H219.321L213.237 46.628L206.373 29H204.345L197.637 46.628ZM380.176 107H290.476V2.48L319.804 2.48V80.636H380.176V107ZM459.892 108.56C423.544 108.56 402.016 87.344 402.016 54.74C402.016 22.136 423.544 0.919999 459.892 0.919999C497.176 0.919999 518.392 22.136 518.392 54.74C518.392 87.344 497.176 108.56 459.892 108.56ZM459.892 80.48C481.108 80.48 487.192 75.488 487.192 54.74C487.192 33.992 481.108 29 459.892 29C438.676 29 433.216 33.992 433.216 54.74C433.216 75.488 438.676 80.48 459.892 80.48Z"/>
</mask>
<path d="M84.9912 107V109H86.3434L86.8472 107.745L84.9912 107ZM42.8712 107L41.0152 107.745L41.519 109H42.8712V107ZM0.907196 2.48V0.479996H-2.05096L-0.948792 3.22517L0.907196 2.48ZM36.3192 2.48L38.2007 1.80186L37.7243 0.479996H36.3192V2.48ZM63.3072 77.36L61.4257 78.0381L61.9021 79.36H63.3072V77.36ZM65.3352 77.36V79.36H66.7514L67.2217 78.0242L65.3352 77.36ZM91.6992 2.48V0.479996H90.283L89.8127 1.8158L91.6992 2.48ZM126.955 2.48L128.811 3.22517L129.913 0.479996H126.955V2.48ZM84.9912 105H42.8712V109H84.9912V105ZM44.7272 106.255L2.76318 1.73483L-0.948792 3.22517L41.0152 107.745L44.7272 106.255ZM0.907196 4.48L36.3192 4.48V0.479996L0.907196 0.479996V4.48ZM34.4377 3.15813L61.4257 78.0381L65.1887 76.6819L38.2007 1.80186L34.4377 3.15813ZM63.3072 79.36H65.3352V75.36H63.3072V79.36ZM67.2217 78.0242L93.5857 3.1442L89.8127 1.8158L63.4487 76.6958L67.2217 78.0242ZM91.6992 4.48L126.955 4.48V0.479996L91.6992 0.479996V4.48ZM125.099 1.73483L83.1352 106.255L86.8472 107.745L128.811 3.22517L125.099 1.73483ZM172.365 107V109H173.695L174.209 107.773L172.365 107ZM139.449 107L137.612 106.208L136.408 109H139.449V107ZM184.533 2.48V0.479996H183.217L182.696 1.68786L184.533 2.48ZM226.497 2.48L228.332 1.68555L227.81 0.479996H226.497V2.48ZM271.737 107V109H274.782L273.572 106.206L271.737 107ZM238.041 107L236.191 107.761L236.701 109H238.041V107ZM230.085 87.656L231.934 86.8952L231.425 85.656H230.085V87.656ZM180.477 87.656V85.656H179.147L178.632 86.8825L180.477 87.656ZM197.637 46.628L199.484 47.3944L199.495 47.367L199.506 47.3393L197.637 46.628ZM191.553 61.292L189.705 60.5256L188.558 63.292H191.553V61.292ZM219.321 61.292V63.292H222.316L221.168 60.5256L219.321 61.292ZM213.237 46.628L211.373 47.3537L211.381 47.3742L211.389 47.3944L213.237 46.628ZM206.373 29L208.236 28.2743L207.74 27H206.373V29ZM204.345 29V27H202.966L202.475 28.2887L204.345 29ZM172.365 105H139.449V109H172.365V105ZM141.285 107.792L186.369 3.27213L182.696 1.68786L137.612 106.208L141.285 107.792ZM184.533 4.48L226.497 4.48V0.479996L184.533 0.479996V4.48ZM224.661 3.27444L269.901 107.794L273.572 106.206L228.332 1.68555L224.661 3.27444ZM271.737 105L238.041 105V109L271.737 109V105ZM239.89 106.239L231.934 86.8952L228.235 88.4167L236.191 107.761L239.89 106.239ZM230.085 85.656H180.477V89.656H230.085V85.656ZM178.632 86.8825L170.52 106.227L174.209 107.773L182.321 88.4295L178.632 86.8825ZM195.789 45.8616L189.705 60.5256L193.4 62.0584L199.484 47.3944L195.789 45.8616ZM191.553 63.292H219.321V59.292H191.553V63.292ZM221.168 60.5256L215.084 45.8616L211.389 47.3944L217.473 62.0584L221.168 60.5256ZM215.1 45.9023L208.236 28.2743L204.509 29.7257L211.373 47.3537L215.1 45.9023ZM206.373 27H204.345V31H206.373V27ZM202.475 28.2887L195.767 45.9167L199.506 47.3393L206.214 29.7113L202.475 28.2887ZM380.176 107V109H382.176V107H380.176ZM290.476 107H288.476V109H290.476V107ZM290.476 2.48V0.479996H288.476V2.48H290.476ZM319.804 2.48H321.804V0.479996H319.804V2.48ZM319.804 80.636H317.804V82.636H319.804V80.636ZM380.176 80.636H382.176V78.636H380.176V80.636ZM380.176 105H290.476V109H380.176V105ZM292.476 107V2.48L288.476 2.48V107H292.476ZM290.476 4.48L319.804 4.48V0.479996L290.476 0.479996V4.48ZM317.804 2.48V80.636H321.804V2.48H317.804ZM319.804 82.636H380.176V78.636H319.804V82.636ZM378.176 80.636V107H382.176V80.636H378.176ZM459.892 106.56C442.104 106.56 428.169 101.374 418.697 92.4229C409.237 83.4827 404.016 70.5884 404.016 54.74H400.016C400.016 71.4956 405.56 85.5113 415.95 95.3301C426.329 105.138 441.333 110.56 459.892 110.56V106.56ZM404.016 54.74C404.016 38.8916 409.237 25.9973 418.697 17.0571C428.169 8.10603 442.104 2.92 459.892 2.92V-1.08C441.333 -1.08 426.329 4.34197 415.95 14.1499C405.56 23.9687 400.016 37.9844 400.016 54.74H404.016ZM459.892 2.92C478.161 2.92 492.248 8.11289 501.753 17.0598C511.245 25.9946 516.392 38.8838 516.392 54.74H520.392C520.392 37.9922 514.931 23.9714 504.494 14.1472C494.07 4.33511 478.907 -1.08 459.892 -1.08V2.92ZM516.392 54.74C516.392 70.5962 511.245 83.4854 501.753 92.4202C492.248 101.367 478.161 106.56 459.892 106.56V110.56C478.907 110.56 494.07 105.145 504.494 95.3328C514.931 85.5086 520.392 71.4878 520.392 54.74H516.392ZM459.892 82.48C470.481 82.48 478.053 81.2804 482.853 76.862C487.707 72.3937 489.192 65.1517 489.192 54.74H485.192C485.192 65.0763 483.636 70.7043 480.144 73.9191C476.597 77.1836 470.519 78.48 459.892 78.48V82.48ZM489.192 54.74C489.192 44.3283 487.707 37.0863 482.853 32.618C478.053 28.1996 470.481 27 459.892 27V31C470.519 31 476.597 32.2964 480.144 35.561C483.636 38.7757 485.192 44.4037 485.192 54.74H489.192ZM459.892 27C449.313 27 441.868 28.1951 437.216 32.6441C432.533 37.122 431.216 44.3677 431.216 54.74H435.216C435.216 44.3643 436.629 38.74 439.98 35.5349C443.362 32.3009 449.255 31 459.892 31V27ZM431.216 54.74C431.216 65.1123 432.533 72.358 437.216 76.8359C441.868 81.2849 449.313 82.48 459.892 82.48V78.48C449.255 78.48 443.362 77.1791 439.98 73.9451C436.629 70.74 435.216 65.1157 435.216 54.74H431.216Z" fill="#1F2326" mask="url(#path-1-outside-1_0_281)"/>
</svg>
