<svg width="464" height="159" viewBox="0 0 464 159" fill="none" xmlns="http://www.w3.org/2000/svg">
<g clip-path="url(#clip0_127_3390)">
<path d="M1 158V8.7489L8.75103 1H462.982L463.176 158H1Z" fill="#F8F8F8" stroke="black" stroke-width="2"/>
<rect x="267" y="41" width="122" height="116" fill="#FF4656"/>
<path fill-rule="evenodd" clip-rule="evenodd" d="M409.519 71.4859C409.519 95.4654 389.356 114.905 364.483 114.905C339.609 114.905 319.446 95.4654 319.446 71.4859C319.446 47.5063 339.609 28.0672 364.483 28.0672C389.356 28.0672 409.519 47.5063 409.519 71.4859ZM418.017 71.4859C418.017 99.9897 394.049 123.097 364.483 123.097C334.916 123.097 310.948 99.9897 310.948 71.4859C310.948 42.9821 334.916 19.875 364.483 19.875C394.049 19.875 418.017 42.9821 418.017 71.4859ZM357.684 46.0899L348.289 37.7868C341.566 40.7074 335.9 45.4878 331.996 51.448L336.44 60.0168L328.968 57.1352C327.212 61.3134 326.244 65.8812 326.244 70.667C326.244 72.9201 326.459 75.125 326.869 77.2637L339.839 74.7626L351.736 55.1014L349.187 74.7626L332.877 91.1697C334.651 93.6381 336.737 95.8826 339.078 97.8504L338.99 97.7008L348.337 90.3279L343.479 101.033C349.295 104.628 356.211 106.713 363.633 106.713C372.845 106.713 381.279 103.501 387.795 98.1759L382.327 91.147L361.933 88.6895L380.628 82.955L381.477 72.3051L372.13 51.8244L387.426 71.4859V82.1355L396.61 87.6696C399.425 82.6046 401.022 76.8156 401.022 70.667C401.022 62.4471 398.168 54.87 393.364 48.8061L385.726 58.3781L389.645 44.775C382.916 38.4896 373.743 34.6214 363.633 34.6214C363.349 34.6214 363.065 34.6245 362.783 34.6306V41.9937L365.332 46.0899L361.083 62.4743L357.684 46.0899Z" fill="#1F2326"/>
</g>
<defs>
<clipPath id="clip0_127_3390">
<rect width="464" height="159" fill="white"/>
</clipPath>
</defs>
</svg>
