<svg width="464" height="159" viewBox="0 0 464 159" fill="none" xmlns="http://www.w3.org/2000/svg">
<g clip-path="url(#clip0_127_3393)">
<path d="M1 158V8.7489L8.75103 1H462.982L463.176 158H1Z" fill="#F8F8F8" stroke="black" stroke-width="2"/>
<rect x="267" y="41" width="122" height="116" fill="#FF4656"/>
<path fill-rule="evenodd" clip-rule="evenodd" d="M368.047 21.4306C368.047 23.8775 366.06 25.8611 363.609 25.8611C361.158 25.8611 359.171 23.8775 359.171 21.4306C359.171 18.9836 361.158 17 363.609 17C366.06 17 368.047 18.9836 368.047 21.4306ZM380.472 38.2664C380.472 41.2027 378.087 43.583 375.146 43.583C372.205 43.583 369.821 41.2027 369.821 38.2664C369.821 35.33 372.205 32.9498 375.146 32.9498C378.087 32.9498 380.472 35.33 380.472 38.2664ZM353.844 41.8109C355.805 41.8109 357.395 40.2241 357.395 38.2664C357.395 36.309 355.805 34.7219 353.844 34.7219C351.884 34.7219 350.294 36.309 350.294 38.2664C350.294 40.2241 351.884 41.8109 353.844 41.8109ZM386.978 53.0571C390.546 57.7692 392.663 63.638 392.663 70.0004C392.663 85.5313 380.051 98.1216 364.495 98.1216C348.938 98.1216 336.326 85.5313 336.326 70.0004C336.326 63.6377 338.443 57.7683 342.012 53.0562L310.354 27.634C309.17 31.1786 310.886 42.1663 316.567 47.1284C319.216 49.443 321.647 51.5262 323.787 53.3599C326.234 55.4575 328.302 57.2294 329.88 58.6478V64.8506L312.478 51.5588C313.069 55.9895 315.493 65.9484 320.818 70.3788C324.139 73.1417 327.07 75.2372 328.761 76.4471C329.24 76.7893 329.619 77.0607 329.88 77.2559V84.345L318.342 74.5976C317.75 80.5051 322.426 92.2395 328.639 96.7503C332.574 99.6072 339.24 105.207 346.098 110.967C352.855 116.643 359.797 122.474 364.496 125.992C369.195 122.474 376.137 116.642 382.893 110.967C389.751 105.207 396.418 99.6065 400.353 96.75C406.566 92.2389 411.242 80.5048 410.65 74.5973L399.111 84.3447V77.2556C400.295 76.3694 403.727 73.7111 407.987 70.1669C413.189 65.839 414.439 56.4384 415.046 51.8753L415.088 51.5585L399.111 64.85V58.6475C400.69 57.229 402.757 55.4575 405.205 53.3599L405.209 53.3566C407.347 51.5234 409.777 49.4412 412.425 47.1281C418.106 42.1657 419.822 31.178 418.638 27.6336L386.978 53.0571ZM364.495 91.4334C376.26 91.4334 385.797 81.9118 385.797 70.1666C385.797 58.4214 376.26 48.9002 364.495 48.9002C352.731 48.9002 343.193 58.4214 343.193 70.1666C343.193 81.9118 352.731 91.4334 364.495 91.4334Z" fill="#1F2326"/>
</g>
<defs>
<clipPath id="clip0_127_3393">
<rect width="464" height="159" fill="white"/>
</clipPath>
</defs>
</svg>
