<svg width="464" height="159" viewBox="0 0 464 159" fill="none" xmlns="http://www.w3.org/2000/svg">
<g clip-path="url(#clip0_127_3398)">
<path d="M1 158V8.7489L8.75103 1H462.982L463.176 158H1Z" fill="#F8F8F8" stroke="black" stroke-width="2"/>
<rect x="267" y="41" width="122" height="116" fill="#FF4656"/>
<path fill-rule="evenodd" clip-rule="evenodd" d="M315.333 76.7777L364.381 127.016L413.429 76.7777C424.633 65.3012 424.526 47.1516 413.186 35.8043C401.454 24.0652 382.205 24.0652 370.473 35.8043L364.381 41.9006L358.289 35.8043C346.557 24.0652 327.308 24.0652 315.576 35.8043C304.236 47.1516 304.129 65.3012 315.333 76.7777ZM388.663 71.4361C381.9 71.1072 376.166 68.5329 371.462 63.7129C366.759 58.8932 364.407 53.1438 364.407 46.4652C364.407 53.1438 362.046 58.8932 357.326 63.7129C352.605 68.5329 346.863 71.1072 340.1 71.4361C344.553 71.6336 348.638 72.8757 352.354 75.1622C356.07 77.4488 359.008 80.4754 361.167 84.2427C363.327 88.0097 364.407 92.0976 364.407 96.5061C364.407 89.7945 366.759 84.0205 371.462 79.1843C376.166 74.3478 381.9 71.7653 388.663 71.4361Z" fill="#1F2326"/>
</g>
<defs>
<clipPath id="clip0_127_3398">
<rect width="464" height="159" fill="white"/>
</clipPath>
</defs>
</svg>
